<?xml version="1.0" encoding="utf-8"?>
<!-- Generator: Adobe Illustrator 21.0.2, SVG Export Plug-In . SVG Version: 6.00 Build 0)  -->
<svg version="1.1" xmlns="http://www.w3.org/2000/svg" xmlns:xlink="http://www.w3.org/1999/xlink" x="0px" y="0px"
	 viewBox="0 0 200 200" style="enable-background:new 0 0 200 200;" xml:space="preserve">
<style type="text/css">
	.st0{display:none;}
	.st1{fill:none;stroke:#000000;stroke-miterlimit:10;}
	.st2{display:inline;fill:none;stroke:#000000;stroke-miterlimit:10;}
	.st3{display:none;fill:none;stroke:#000000;stroke-width:0.7926;stroke-miterlimit:10;}
	.st4{fill:none;stroke:#000000;stroke-width:12;stroke-miterlimit:10;}
</style>
<g id="Lager_1" class="st0">
	<path class="st1" d="M99.1,0c-55,0-99,45-99,100s44,100,99,100s99-45,99-100S154.1,0,99.1,0z"/>
	<path class="st2" d="M99.1,12c48,0,87,40,87,88c0,19-6,38-17,52h-11c-15,0-26-1-35-4l36-82h-32l-24,61c-2,4-6,4-8,0l-24-61h-32
		l29,63c-11-3-24-5-42-5h-10c-2-8-3-16-3-24C12.1,51,51.1,12,99.1,12z"/>
	<path class="st2" d="M19.1,136h6c32,0,48,7,64,14c17,7,34,14,69,14h1c-16,15-37,25-61,25C63.1,188,33.1,167,19.1,136z"/>
	<circle class="st1" cx="99.1" cy="54" r="13"/>
</g>
<g id="Vingaship">
	<circle id="Dot" cx="100" cy="54" r="12.5"/>
	<path id="V_2_" d="M124.6,148.6l36.7-83.5h-32.6l-24.4,62.1c-2,4.1-6.1,4.1-8.1,0L71.6,65.1H39l29.5,64.2l4.1,10l27.5,9.4l22.1,5.8
		L124.6,148.6z"/>
	<polygon id="Mask" class="st3" points="31.9,57.5 170.4,57.5 170.4,158.6 129.6,156.6 61.6,134.2 31.9,131.6 	"/>
	<path d="M100,0C44.8,0,0,44.8,0,100c0,55.2,44.8,100,100,100s100-44.8,100-100C200,44.8,155.2,0,100,0z M100.1,187.6
		c-48.3,0-87.5-39.2-87.5-87.5c0-48.3,39.2-87.5,87.5-87.5s87.5,39.2,87.5,87.5C187.6,148.4,148.4,187.6,100.1,187.6z"/>
	<path class="st4" d="M12.3,131.6c87.7-3.7,77.7,30,158.1,27"/>
</g>
</svg>
